<svg xmlns="http://www.w3.org/2000/svg" viewBox="0 0 32 32">
  <defs>
    <linearGradient id="grad" x1="0%" y1="0%" x2="100%" y2="100%">
      <stop offset="0%" style="stop-color:#3b82f6"/>
      <stop offset="100%" style="stop-color:#1d4ed8"/>
    </linearGradient>
  </defs>
  <rect width="32" height="32" rx="8" fill="url(#grad)"/>
  <g transform="translate(6, 6)" stroke="white" stroke-width="1.5" fill="none" stroke-linecap="round" stroke-linejoin="round">
    <path d="M17.5 13.3V6.7a1.7 1.7 0 0 0-.8-1.4l-5.8-3.4a1.7 1.7 0 0 0-1.7 0l-5.8 3.4a1.7 1.7 0 0 0-.8 1.4v6.6a1.7 1.7 0 0 0 .8 1.4l5.8 3.4a1.7 1.7 0 0 0 1.7 0l5.8-3.4a1.7 1.7 0 0 0 .8-1.4z"/>
    <polyline points="2.7 5.8 10 10 17.3 5.8"/>
    <line x1="10" y1="18.4" x2="10" y2="10"/>
  </g>
</svg>
